<svg xmlns="http://www.w3.org/2000/svg" version="1.1" xmlns:xlink="http://www.w3.org/1999/xlink"
    xmlns:svgjs="http://svgjs.dev/svgjs" width="1000" height="875" viewBox="0 0 1000 875">
    <g transform="matrix(1,0,0,1,-0.46047880137473385,0.3549051790781732)">
        <svg viewBox="0 0 282 247" data-background-color="#ffffff"
            preserveAspectRatio="xMidYMid meet" height="875" width="1000"
            xmlns="http://www.w3.org/2000/svg" xmlns:xlink="http://www.w3.org/1999/xlink">
            <g id="tight-bounds"
                transform="matrix(1,0,0,1,0.12985502198768017,-0.09997365579206985)">
                <svg viewBox="0 0 281.74028995602464 247.2" height="247.2"
                    width="281.74028995602464">
                    <g>
                        <svg viewBox="0 0 281.74028995602464 247.2" height="247.2"
                            width="281.74028995602464">
                            <g>
                                <svg viewBox="0 0 281.74028995602464 247.2" height="247.2"
                                    width="281.74028995602464">
                                    <g id="textblocktransform">
                                        <svg viewBox="0 0 281.74028995602464 247.2" height="247.2"
                                            width="281.74028995602464" id="textblock">
                                            <g>
                                                <svg viewBox="0 0 281.74028995602464 247.2"
                                                    height="247.2" width="281.74028995602464">
                                                    <path
                                                        d="M281.081 53.02C279.756 27.36 275.981 20.227 275.981 20.227 264.392-6.202 249.928-0.506 236.934 3.292 213.994 3.446 191.146 9.091 168.258 12.119 120.218 12.581 71.767 4.986 23.965 23.717 19.474 29.464-4.658 24.846 0.799 56.304 2.229 69.39 7.448 83.913 7.289 95.922 8.004 98.026 8.997 93.202 9.421 96.23 10.905 104.39 13.329 100.541 15.315 105.365 12.547 118.246 14.534 128.971 16.428 140.21 13.09 143.135 8.812 141.749 6.891 151.449 6.693 158.479 5.62 157.145 4.441 156.837 3.58 156.632 1.845 157.402 2.136 159.608 3.13 167.152-1.135 171.514 1.54 178.904-0.301 186.91 2.812 193.838 2.388 202.511 2.335 204.255 2.627 205.744 3.09 206.154 5.143 208.361 2.15 212.672 2.468 217.342 23.527 249.262 46.375 227.195 67.952 241.872 73.555 231.608 69.343 245.516 71.581 243.36 73.329 240.846 74.601 251.263 76.575 245.362 76.879 243.668 76.416 239.665 77.502 240.435 78.071 240.846 78.575 240.743 78.654 238.382 78.773 234.841 77.727 237.048 77.449 235.201 80.455 225.861 79.714 248.081 82.535 247.158 82.402 244.438 81.581 240.538 83.263 241.051 84.932 237.151 84.985 233.918 86.469 242.693 86.522 244.592 86.787 245.926 87.21 246.85 91.846 237.305 96.456 250.237 101.317 245.926 104.297 241.205 107.158 248.492 110.178 246.696 111.237 245.259 112.31 242.693 113.33 247.004 125.82 247.928 139.132 244.079 150.973 247.158 182.616 241.41 216.431 249.518 249.795 241.923 257.663 238.998 265.835 234.841 273.504 231.506 273.504 231.506 279.716 222.371 279.716 181.316S281.041 145.393 281.24 112.703C281.438 80.013 282.365 78.679 281.041 53.02Z"
                                                        opacity="1" fill="#915eff"
                                                        data-fill-palette-color="tertiary"></path>
                                                    <g
                                                        transform="matrix(1,0,0,1,55.76832,26.230666666666668)">
                                                        <svg width="170.20364995602463"
                                                            viewBox="2 -37.0099983215332 32.349998474121094 37.0099983215332"
                                                            height="194.73866666666666"
                                                            data-palette-color="#ffffff">
                                                            <path
                                                                d="M2-30.3L2-37.01 16.21-37.01Q18.75-37.01 21.08-36.35 23.41-35.69 25.43-34.5 27.44-33.3 29.09-31.63 30.74-29.96 31.91-27.91 33.08-25.85 33.72-23.49 34.35-21.12 34.35-18.55L34.35-18.55Q34.35-15.99 33.72-13.62 33.08-11.25 31.91-9.19 30.74-7.13 29.09-5.43 27.44-3.74 25.43-2.53 23.41-1.32 21.08-0.66 18.75 0 16.21 0L16.21 0 2 0 2-6.69 4.96-6.69 4.96-30.3 2-30.3ZM16.16-30.3L13.06-30.3 13.06-6.69 16.16-6.69Q18.14-6.69 19.9-7.62 21.66-8.54 22.95-10.14 24.24-11.74 25-13.9 25.76-16.06 25.76-18.55L25.76-18.55Q25.76-21.02 25-23.17 24.24-25.32 22.95-26.9 21.66-28.49 19.9-29.39 18.14-30.3 16.16-30.3L16.16-30.3Z"
                                                                opacity="1"
                                                                transform="matrix(1,0,0,1,0,0)"
                                                                fill="#ffffff"
                                                                class="wordmark-text-0"
                                                                data-fill-palette-color="quaternary"
                                                                id="text-0"></path>
                                                        </svg>
                                                    </g>
                                                </svg>
                                            </g>
                                        </svg>
                                    </g>
                                </svg>
                            </g>
                            <g></g>
                        </svg>
                    </g>
                    <defs></defs>
                </svg>
                <rect width="281.74028995602464" height="247.2" fill="none" stroke="none"
                    visibility="hidden"></rect>
            </g>
        </svg>
    </g>
</svg>